<svg xmlns="http://www.w3.org/2000/svg" viewBox="0 0 119.28 58.35" shape-rendering="geometricPrecision">
  <title>justBrowsLogo</title>
    
  <g>
    <g>
      <path d="M31.37,25.45a40.84,40.84,0,0,0,4-2.66c1-.79,1.93-1.51,3.08-2.54.48-.42.79-.72,1-.54s-.18.54-.79,1.09c-1,.91-2.24,1.93-3.38,2.78a34.47,34.47,0,0,1-4.23,2.72,37,37,0,0,1-3.62,1.75c-1,1.27-2.72,3.38-4.29,5-4,4.29-9.12,8.4-13.53,10.57a13.91,13.91,0,0,1-5.74,1.63C2.74,45.27.5,44.91.5,42.73c0-2.54,3.87-5.68,10.33-8.82,3.44-1.69,7.49-3.38,12.51-5.26C27.45,23.1,31.61,18,34.94,14.28a82.79,82.79,0,0,1,9.3-8.58c2-1.63,3.93-2.84,5.07-3.62.42-.3.66-.42.66-.54s-.18-.3-.6-.3c-3.2-.06-7.73.91-12.81,3.56-5.5,2.9-9.73,7.37-9.73,10.87a2.46,2.46,0,0,0,1.69,2.66c.85.24,1-.12,1.09.12s-.48.42-1.09.36c-1.87-.18-3.08-1.69-3.08-3.87,0-3.32,2.84-8.28,10.75-11.72A33.4,33.4,0,0,1,49.62.69c.54.06,1.51.18,1.33.91-.06.24-.54.6-1.09,1-.85.66-2.3,2-3.62,3.26A108.88,108.88,0,0,0,38.74,14c-3.87,4.59-8.82,10.69-10.63,13A22.52,22.52,0,0,0,31.37,25.45ZM10.89,34.58c-5.92,3-8.88,6-8.64,8.22.12,1,1,1.45,2,1.51a10.09,10.09,0,0,0,5.07-1.21c3.62-1.81,7-5.38,10.57-9.73.79-1,2.05-2.66,2.9-3.81A128.72,128.72,0,0,0,10.89,34.58Z" transform="translate(-0.5 -0.65)" fill="#fff"/>
      <path d="M40.92,18.93c-.91.73-1.57,1.27-2.17,1.81s-.73.6-.91.48,0-.36.66-1a48.76,48.76,0,0,1,4.29-3.38,5.44,5.44,0,0,1,3.5-1.33c1.27,0,1.39.18.66,1S45,18.75,43.82,20.26a24.5,24.5,0,0,0-2.23,3.26c-.24.48-.24.91-.06,1.09s.79.18,1.39-.12a35,35,0,0,0,4.53-3.14C50.34,19.11,52,17.6,54,16.09a2.46,2.46,0,0,1,1.75-.66c1,0,1.63.12.91,1-1.09,1.33-2,2.3-3.2,3.87a27.83,27.83,0,0,0-2.23,3.08c-.36.6-.42,1.15-.18,1.33s.79.12,1.39-.18a17.45,17.45,0,0,0,2.72-1.81c1.21-1,2.23-1.87,2.9-2.48.36-.36.72-.6.85-.42s-.3.6-.48.79c-.73.72-2.24,2-3.69,3.14-1.09.85-3.2,2.42-5.2,2.42-1.21,0-1.87-.54-1.87-1.45a4.56,4.56,0,0,1,1-2.48,26.21,26.21,0,0,1,2.84-3.14L51.37,19c-1.21,1-3.26,2.6-4.83,3.81-2.48,1.87-4.65,3.32-6.46,3.32-1.27,0-2.05-.6-2-1.69A5.16,5.16,0,0,1,39.22,22a33.34,33.34,0,0,1,4.29-4.83A19.2,19.2,0,0,0,40.92,18.93Z" transform="translate(-0.5 -0.65)" fill="#fff"/>
      <path d="M59.7,25.7c1.21,0,2.72-1,4-3.26,1.09-1.75,2.05-5.26,2.84-6.16v-.06a28.56,28.56,0,0,1-2.9,2.3A21.39,21.39,0,0,1,61.39,20c-.24.12-.48.24-.6.06s0-.3.3-.48a30.41,30.41,0,0,0,2.54-1.69c1-.72,1.93-1.45,3.14-2.54a3.56,3.56,0,0,1-1.45-2.36c-.18-1.27,0-5.13,6.28-6.34,3.2-.6,9.24-.06,11.72-.48a7.13,7.13,0,0,1,4-2.11c.6,0,.73.24.73.36a6.23,6.23,0,0,1-2.84,2.9c-1.45,1.57-6,6.77-7.19,8.34,1.39-.06,4.35-.06,5.32-.06.6,0,.91.12.85.36s-.42.3-1.09.3c-1.33,0-4.17,0-5.56.06-.48.54-3,4.23-4,5.62a10.43,10.43,0,0,1-3,4,3.11,3.11,0,0,1-1.75.79H68.7c-.48,0-.79,0-.06-1.39.85-1.57,2.72-4.41,4.11-6.58.42-1.15.12-1.45.36-2.05a1.81,1.81,0,0,1,1.69-1,99.17,99.17,0,0,1,8-8.94c-2.66.48-7.61.24-10.21.73-6,1.21-6.52,4.77-6.4,5.8a2.52,2.52,0,0,0,.91,1.87,8.27,8.27,0,0,1,1.09-1.15,2.77,2.77,0,0,1,1.75-.66c1.39,0,.48.85-.3,1.27a7.57,7.57,0,0,0-1.45.91c-.48.48-.42,1-.42,1.63a10.75,10.75,0,0,1-.54,5,7.11,7.11,0,0,1-1.93,2.48,7.6,7.6,0,0,1-5.19,1.81c-3.2,0-3.87-1.93-3.63-3.62s1.63-3.2,3.08-3.14a1.12,1.12,0,0,1,1.15,1.33,2.27,2.27,0,0,1-1.33,1.51A2.42,2.42,0,0,0,58,24.19C57.89,25.15,58.61,25.7,59.7,25.7Z" transform="translate(-0.5 -0.65)" fill="#fff"/>
    </g>
    <g>
      <path d="M29.39,55.38A3.7,3.7,0,0,1,33.13,52c1,0,1.87.48,1.87,1.45s-.85,1.45-1.57,1.75S32.1,55.74,32,56.4c-.18,1,1.21,1.45,2.3,1.45,3.93,0,8.46-4.29,8.7-9.24a3.41,3.41,0,0,0-3.5-3.81,9.09,9.09,0,0,1-1.75.18c-.79,0-1.51-.12-1.45-.48s1-.48,1.63-.48a13.06,13.06,0,0,1,1.81.18,7.7,7.7,0,0,0,6-5.5c.48-1.93.06-3.44-1.33-4.29-.48.48-1,.91-1.39,1.39a92.44,92.44,0,0,0-7.49,9.3C29.93,52.66,23.35,59,16.34,59c-3.75,0-6.4-1.27-6.4-4.59,0-3.5,2.78-8.58,10-13.83a38.55,38.55,0,0,1,21.51-7.37,14.36,14.36,0,0,1,2.36.18,27.78,27.78,0,0,1,5.8-3.26,16.28,16.28,0,0,1,6-1.27c1.93,0,3.56.6,4.23,1.63.18.3.24.48.12.54s-.18-.12-.36-.3a5.26,5.26,0,0,0-3.93-1.39,14.14,14.14,0,0,0-5.68,1.33,21.63,21.63,0,0,0-4.77,3.08c2.24.85,3.81,2.48,3.32,5C47.93,42,43.7,44,40.8,44.44v.06c3.68.6,5.44,2.72,5.32,5.2-.24,5.07-5.74,8.64-11.84,8.64C32,58.34,29.39,57.67,29.39,55.38ZM16.28,58.46c5.56,0,9.36-5.56,14-11.66A73.52,73.52,0,0,1,41.47,35.08c.48-.42,1-.79,1.51-1.15A9.15,9.15,0,0,0,41,33.75c-5.8,0-13.71,2.36-20.12,7.25-6.58,5.07-8.58,10.33-8.58,13.47C12.35,56.83,13.62,58.46,16.28,58.46Z" transform="translate(-0.5 -0.65)" fill="#fff"/>
      <path d="M52.58,56.58c.06-1.33,1.57-3,2.9-4.29s3.74-3,3.93-3.44c.24-.66-.91-.48-2.42-.48a4,4,0,0,1-1.33-.12c-1,1.15-2.48,2.72-4.23,4.53S47,57.25,45.76,58.46c-.36.36-.6.42-.72.3s-.06-.36.3-.73C46.66,56.76,49,54.41,51,52.36c1.45-1.51,3.14-3.26,4.11-4.35-.54-.36-.6-1.21,0-1.93a3,3,0,0,1,2.3-1,1.13,1.13,0,0,1,1.09.6,7,7,0,0,0-1,.85c-.79.85-.6,1.27.18,1.33,1.69.06,3.44.12,3.44,1.21,0,.85-1.45,2.11-2.78,3.69a16.9,16.9,0,0,0-2.05,2.84c-.3.54-.3,1-.06,1.15s.66.12,1.33-.24a19.13,19.13,0,0,0,2.72-1.81c1.33-1,2.05-1.63,2.84-2.36.42-.42.79-.6.91-.48s-.24.54-.72,1c-.73.66-1.93,1.75-3.44,2.9-1.27,1-3.38,2.42-5.38,2.42C53.19,58.15,52.52,57.49,52.58,56.58Z" transform="translate(-0.5 -0.65)" fill="#fff"/>
      <path d="M63.39,52.72c-.42.36-.66.48-.79.36s.18-.48.42-.72a17,17,0,0,1,1.87-1.51,25.91,25.91,0,0,1,2.9-1.75,13.42,13.42,0,0,1,5-1.63c.42,0,.91,0,.91.24s-.18.12-.66.36a16,16,0,0,0-4.35,3.32c-1.75,1.75-3.38,4.11-3.5,5.32-.06.6.18,1,.85,1,1.33,0,3.75-1.63,5.62-3.69a5,5,0,0,1,1.09-2.54,4.93,4.93,0,0,1,1.93-1.57,4,4,0,0,0,.18-1.39c0-.66-.24-.85-.06-1s.6.12.85.36a2.47,2.47,0,0,1,.72,2.11c-.18,1.45-1.57,3.2-3.44,4.89a2.46,2.46,0,0,0,1.15,0,5.82,5.82,0,0,0,2.05-1,16.81,16.81,0,0,0,1.93-1.57c.54-.48.85-.79,1-.6s-.18.54-.79,1.09a19.4,19.4,0,0,1-1.93,1.57,6.28,6.28,0,0,1-2.3,1.09,2.44,2.44,0,0,1-1.63-.12c-1.57,1.21-4.41,3-6.89,3-1.87,0-3-.91-3-2.66a6.54,6.54,0,0,1,1.93-3.87l-.06-.06C64.06,52.11,63.82,52.36,63.39,52.72Z" transform="translate(-0.5 -0.65)" fill="#fff"/>
      <path d="M100.61,54.53a4.61,4.61,0,0,0,2.9-1A15.54,15.54,0,0,0,105,52.29c.3-.3.73-.66.91-.48s-.24.54-.6.91a12.52,12.52,0,0,1-1.45,1.21,5.46,5.46,0,0,1-3.2,1.15,1.9,1.9,0,0,1-1.93-1.15c-.66.42-1.39.91-2.42,1.51A29,29,0,0,1,90.76,58a7.54,7.54,0,0,1-1.75.36c-.42,0-.72-.12-.91-.72a1.23,1.23,0,0,1,.3-1.09c.66-1.09,1.87-2.42,2.66-3.5,1.51-2.11,1.75-2.84,1.57-3s-.6,0-1.15.54a40.92,40.92,0,0,1-5.26,4.53A23.79,23.79,0,0,1,81.15,58a7.39,7.39,0,0,1-1.81.36h-.06a.75.75,0,0,1-.85-.72c-.06-.42.24-.72.54-1.09.91-1.09,2-2.3,3-3.5a22.84,22.84,0,0,0,2.23-3.32c.18-.36.18-.72,0-.85a1,1,0,0,0-.91.06,12.81,12.81,0,0,0-2.36,1.63c-1,.79-2.23,1.93-2.54,2.23s-.48.36-.6.24,0-.36.24-.6,2.36-2.17,3.2-2.84c1.45-1.15,3-2.11,4.23-2.11s1.87.66,1.69,2.11a8.94,8.94,0,0,1-2,3.69,36,36,0,0,1-3.56,3.87A25.76,25.76,0,0,0,86,54.53a56.2,56.2,0,0,0,5-4.35,11.11,11.11,0,0,1,3.26-2.05,1.29,1.29,0,0,1,1.45,1.45,8.48,8.48,0,0,1-1.63,3.69,30.17,30.17,0,0,1-3,3.87,20.9,20.9,0,0,0,5-2.3,23.07,23.07,0,0,0,2.54-1.69,7.55,7.55,0,0,1,1.39-3.44c1.09-1.57,2.11-2.42,2.9-2.23s.66,1.39.18,2.17a11.43,11.43,0,0,1-3.87,3.93A1.32,1.32,0,0,0,100.61,54.53Z" transform="translate(-0.5 -0.65)" fill="#fff"/>
      <path d="M115,55.19a27.18,27.18,0,0,0,4-3c.3-.24.6-.54.79-.36s-.12.48-.66,1A30.76,30.76,0,0,1,116,55.19a21.78,21.78,0,0,1-3.81,2.05,14.38,14.38,0,0,1-5.07,1.09c-3.2,0-3.87-1.93-3.62-3.62s1.63-3.2,3.08-3.14a1.12,1.12,0,0,1,1.15,1.33,2.28,2.28,0,0,1-1.33,1.51A2.56,2.56,0,0,0,105,56.22c-.06,1,.66,1.51,1.75,1.51s2.72-1,4-3.26c1.09-1.75,2.17-5.38,2.84-6.16v-.06a27,27,0,0,1-2.9,2.3,21.39,21.39,0,0,1-2.3,1.45c-.24.12-.48.24-.6.06s0-.3.3-.48a30.31,30.31,0,0,0,2.54-1.69c1.09-.79,2.17-1.69,3.56-2.9a3.69,3.69,0,0,1,1-1,3.19,3.19,0,0,1,1.75-.66c1.39,0,.48.79-.3,1.27a12.55,12.55,0,0,0-1.45.91c-.48.48-.42,1-.42,1.63a10.75,10.75,0,0,1-.54,5,6.55,6.55,0,0,1-1.93,2.48A15.41,15.41,0,0,0,115,55.19Z" transform="translate(-0.5 -0.65)" fill="#fff"/>
    </g>
  </g>
</svg>
