<svg xmlns="http://www.w3.org/2000/svg" viewBox="0 0 50 50">
  <title>Social Icons</title>
  <g>
    <circle cx="25" cy="25" r="23.19" fill="none" stroke="#fff" stroke-miterlimit="10"/>
    <g>
      <path d="M39.48,25c0,2,0,4-.07,6.06a9.51,9.51,0,0,1-1.26,4.6,7.51,7.51,0,0,1-5.08,3.48,20.1,20.1,0,0,1-4,.31c-2.87,0-5.74,0-8.61,0a14,14,0,0,1-4.54-.59,7.44,7.44,0,0,1-5.05-5.81,19.3,19.3,0,0,1-.31-4c0-2.87,0-5.74,0-8.61a14,14,0,0,1,.59-4.54,7.44,7.44,0,0,1,5.81-5.05,19.14,19.14,0,0,1,4-.31c2.88,0,5.76,0,8.64,0a14,14,0,0,1,4.54.59,7.44,7.44,0,0,1,5.05,5.81,20.21,20.21,0,0,1,.32,4C39.5,22.3,39.48,23.67,39.48,25Zm-2.6-.45c0-2.06.05-4.32-.2-6.56a5,5,0,0,0-4.1-4.6,18.72,18.72,0,0,0-3.92-.29c-2.45,0-4.89,0-7.34,0a31.34,31.34,0,0,0-3.29.17,5,5,0,0,0-4.57,3.91,14.63,14.63,0,0,0-.31,3.44q0,3,0,5.94A49.51,49.51,0,0,0,13.31,32a5,5,0,0,0,4.07,4.59,18.53,18.53,0,0,0,3.95.29c2.45,0,4.89,0,7.34,0A25.09,25.09,0,0,0,32,36.69a5.7,5.7,0,0,0,2.83-1.1,5.54,5.54,0,0,0,2-4.21C36.91,29.18,36.87,27,36.88,24.59Z" fill="#fff"/>
      <path d="M25,32.44a7.45,7.45,0,1,1,7.45-7.36A7.41,7.41,0,0,1,25,32.44Zm0-12.27A4.83,4.83,0,1,0,29.83,25,4.85,4.85,0,0,0,25,20.17Z" fill="#fff"/>
      <path d="M34.48,17.25A1.75,1.75,0,0,1,32.74,19,1.77,1.77,0,0,1,31,17.26a1.74,1.74,0,0,1,1.74-1.73A1.71,1.71,0,0,1,34.48,17.25Z" fill="#fff"/>
    </g>
  </g>
</svg>
