<svg xmlns="http://www.w3.org/2000/svg" viewBox="0 0 50 50">
  <title>Social Icons</title>
  <g>
    <path d="M39.2,31.93c-4.16-.65-6-4.72-6.09-4.9h0A1.42,1.42,0,0,1,33,25.77c.28-.64,1.2-.91,1.81-1.1l.41-.13c1.1-.42,1.33-.86,1.33-1.14a1,1,0,0,0-.74-.75,1.52,1.52,0,0,0-.52-.1,1.11,1.11,0,0,0-.45.09,3.79,3.79,0,0,1-1.39.38,1.23,1.23,0,0,1-.75-.25l0-.74v-.09c.13-1.9.28-4.26-.35-5.61A7.67,7.67,0,0,0,25.29,12H24.7a7.65,7.65,0,0,0-7,4.36c-.62,1.35-.48,3.71-.35,5.61l0,.83a1.2,1.2,0,0,1-.84.25A3.7,3.7,0,0,1,15,22.62l-.36-.06c-.48,0-1.09.3-1.17.74-.12.59.77,1,1.32,1.23l.41.13c.61.19,1.54.46,1.81,1.1A1.42,1.42,0,0,1,16.9,27h0a9.22,9.22,0,0,1-1.54,2.3,7.67,7.67,0,0,1-4.55,2.59.33.33,0,0,0-.29.35l0,.19c.26.57,1.54,1,3.7,1.36.2,0,.29.33.41.86.06.22.1.42.17.65a.43.43,0,0,0,.46.32,4.05,4.05,0,0,0,.61-.09,8.51,8.51,0,0,1,1.62-.17,8.15,8.15,0,0,1,1.17.09,5.66,5.66,0,0,1,2.22,1.09A6.6,6.6,0,0,0,24.81,38h.38a6.6,6.6,0,0,0,3.9-1.48,5.66,5.66,0,0,1,2.22-1.09,8.15,8.15,0,0,1,1.17-.09,8.41,8.41,0,0,1,1.62.16,4.16,4.16,0,0,0,.61.07h0a.4.4,0,0,0,.42-.3c.07-.22.12-.43.17-.64.12-.52.2-.84.41-.87,2.16-.32,3.43-.78,3.7-1.35l0-.19A.33.33,0,0,0,39.2,31.93Z" fill="#fff" fill-rule="evenodd"/>
    <circle cx="25" cy="25" r="23.19" fill="none" stroke="#fff" stroke-miterlimit="10"/>
  </g>
</svg>
