<svg xmlns="http://www.w3.org/2000/svg" viewBox="0 0 50 50">
  <title>Social Icons</title>
  <g>
    <path d="M38.62,14.29a10.11,10.11,0,0,1-3.41,1.42,5.11,5.11,0,0,0-3.9-1.86A5.62,5.62,0,0,0,26,19.71,6.61,6.61,0,0,0,26.1,21a14.82,14.82,0,0,1-11-6.12,6.23,6.23,0,0,0-.72,2.94,6,6,0,0,0,2.38,4.87A5,5,0,0,1,14.3,22v.07a5.74,5.74,0,0,0,4.29,5.74,5.07,5.07,0,0,1-1.41.2,4.72,4.72,0,0,1-1-.1,5.45,5.45,0,0,0,5,4.06,10.09,10.09,0,0,1-6.64,2.51,12.08,12.08,0,0,1-1.28-.07A14.25,14.25,0,0,0,21.46,37c9.84,0,15.22-8.91,15.22-16.65v-.75a11.29,11.29,0,0,0,2.68-3,9.92,9.92,0,0,1-3.07.93A5.85,5.85,0,0,0,38.62,14.29Z" fill="#fff" fill-rule="evenodd"/>
    <circle cx="25" cy="25" r="23.19" fill="none" stroke="#fff" stroke-miterlimit="10"/>
  </g>
</svg>
